# xmcd
#
# Track frame offsets: 
#        182
#        56967
#        82860
#        130105
#        169935
#        186110
#        233702
#
# Disc length: 3621 seconds
#
# Revision: 5
# Processed by: cddbd v1.5.2PL0 Copyright (c) Steve Scherf et al.
# Submitted via: ExactAudioCopy v0.95b4
#
DISCID=550e2307
DTITLE=Robben Ford - Discovering The Blues
DYEAR=1972
DGENRE=Blues
TTITLE0=Sweet Sixteen
TTITLE1=You Drive A Hard Bargain
TTITLE2=It's My Own Fault
TTITLE3=You Don't Know What Love Is
TTITLE4=My Time After Awhile
TTITLE5=Raining In My Heart
TTITLE6=Blue and Lonesome
EXTD=1972 - Avenue Jazz
EXTT0=
EXTT1=
EXTT2=
EXTT3=
EXTT4=
EXTT5=
EXTT6=
PLAYORDER=
